<mxfile host="app.diagrams.net" modified="2020-10-22T06:59:16.699Z" agent="5.0 (Macintosh; Intel Mac OS X 10_15_7) AppleWebKit/537.36 (KHTML, like Gecko) Chrome/85.0.4183.121 Safari/537.36" etag="QcMH38VCmeHiQqqGshe2" version="13.8.1" type="github">
  <diagram id="C5RBs43oDa-KdzZeNtuy" name="Page-1">
    <mxGraphModel dx="2125" dy="795" grid="1" gridSize="10" guides="1" tooltips="1" connect="1" arrows="1" fold="1" page="1" pageScale="1" pageWidth="827" pageHeight="1169" math="0" shadow="0">
      <root>
        <mxCell id="WIyWlLk6GJQsqaUBKTNV-0" />
        <mxCell id="WIyWlLk6GJQsqaUBKTNV-1" parent="WIyWlLk6GJQsqaUBKTNV-0" />
        <mxCell id="WIyWlLk6GJQsqaUBKTNV-2" value="" style="rounded=0;html=1;jettySize=auto;orthogonalLoop=1;fontSize=11;endArrow=block;endFill=0;endSize=8;strokeWidth=1;shadow=0;labelBackgroundColor=none;edgeStyle=orthogonalEdgeStyle;" parent="WIyWlLk6GJQsqaUBKTNV-1" source="WIyWlLk6GJQsqaUBKTNV-3" edge="1">
          <mxGeometry relative="1" as="geometry">
            <mxPoint x="220" y="170" as="targetPoint" />
          </mxGeometry>
        </mxCell>
        <mxCell id="WIyWlLk6GJQsqaUBKTNV-3" value="开始新增域变更项" style="rounded=1;whiteSpace=wrap;html=1;fontSize=12;glass=0;strokeWidth=1;shadow=0;" parent="WIyWlLk6GJQsqaUBKTNV-1" vertex="1">
          <mxGeometry x="160" y="80" width="120" height="40" as="geometry" />
        </mxCell>
        <mxCell id="FO1KpMH2WgOHVXkWXq-a-2" value="" style="edgeStyle=orthogonalEdgeStyle;rounded=0;orthogonalLoop=1;jettySize=auto;html=1;" edge="1" parent="WIyWlLk6GJQsqaUBKTNV-1" source="FO1KpMH2WgOHVXkWXq-a-0" target="FO1KpMH2WgOHVXkWXq-a-1">
          <mxGeometry relative="1" as="geometry" />
        </mxCell>
        <mxCell id="FO1KpMH2WgOHVXkWXq-a-0" value="从请求的参数提取domain的信息" style="rounded=0;whiteSpace=wrap;html=1;" vertex="1" parent="WIyWlLk6GJQsqaUBKTNV-1">
          <mxGeometry x="160" y="170" width="120" height="60" as="geometry" />
        </mxCell>
        <mxCell id="FO1KpMH2WgOHVXkWXq-a-4" value="" style="edgeStyle=orthogonalEdgeStyle;rounded=0;orthogonalLoop=1;jettySize=auto;html=1;" edge="1" parent="WIyWlLk6GJQsqaUBKTNV-1" source="FO1KpMH2WgOHVXkWXq-a-1" target="FO1KpMH2WgOHVXkWXq-a-3">
          <mxGeometry relative="1" as="geometry" />
        </mxCell>
        <mxCell id="FO1KpMH2WgOHVXkWXq-a-8" value="N" style="edgeLabel;html=1;align=center;verticalAlign=middle;resizable=0;points=[];" vertex="1" connectable="0" parent="FO1KpMH2WgOHVXkWXq-a-4">
          <mxGeometry x="-0.3437" y="-3" relative="1" as="geometry">
            <mxPoint as="offset" />
          </mxGeometry>
        </mxCell>
        <mxCell id="FO1KpMH2WgOHVXkWXq-a-6" value="" style="edgeStyle=orthogonalEdgeStyle;rounded=0;orthogonalLoop=1;jettySize=auto;html=1;" edge="1" parent="WIyWlLk6GJQsqaUBKTNV-1" source="FO1KpMH2WgOHVXkWXq-a-1">
          <mxGeometry relative="1" as="geometry">
            <mxPoint x="220" y="390" as="targetPoint" />
          </mxGeometry>
        </mxCell>
        <mxCell id="FO1KpMH2WgOHVXkWXq-a-9" value="Y" style="edgeLabel;html=1;align=center;verticalAlign=middle;resizable=0;points=[];" vertex="1" connectable="0" parent="FO1KpMH2WgOHVXkWXq-a-6">
          <mxGeometry x="-0.1333" y="-4" relative="1" as="geometry">
            <mxPoint as="offset" />
          </mxGeometry>
        </mxCell>
        <mxCell id="FO1KpMH2WgOHVXkWXq-a-1" value="根据bizCode判断该domain是否已经存在？" style="rhombus;whiteSpace=wrap;html=1;rounded=0;" vertex="1" parent="WIyWlLk6GJQsqaUBKTNV-1">
          <mxGeometry x="180" y="270" width="80" height="80" as="geometry" />
        </mxCell>
        <mxCell id="FO1KpMH2WgOHVXkWXq-a-17" value="" style="edgeStyle=orthogonalEdgeStyle;rounded=0;orthogonalLoop=1;jettySize=auto;html=1;" edge="1" parent="WIyWlLk6GJQsqaUBKTNV-1" source="FO1KpMH2WgOHVXkWXq-a-3" target="FO1KpMH2WgOHVXkWXq-a-11">
          <mxGeometry relative="1" as="geometry" />
        </mxCell>
        <mxCell id="FO1KpMH2WgOHVXkWXq-a-3" value="进入新增domain的操作，首先先上该bizCode的写锁" style="whiteSpace=wrap;html=1;rounded=0;" vertex="1" parent="WIyWlLk6GJQsqaUBKTNV-1">
          <mxGeometry x="300" y="280" width="120" height="60" as="geometry" />
        </mxCell>
        <mxCell id="FO1KpMH2WgOHVXkWXq-a-12" value="" style="edgeStyle=orthogonalEdgeStyle;rounded=0;orthogonalLoop=1;jettySize=auto;html=1;" edge="1" parent="WIyWlLk6GJQsqaUBKTNV-1" source="FO1KpMH2WgOHVXkWXq-a-10" target="FO1KpMH2WgOHVXkWXq-a-11">
          <mxGeometry relative="1" as="geometry" />
        </mxCell>
        <mxCell id="FO1KpMH2WgOHVXkWXq-a-14" value="Y" style="edgeLabel;html=1;align=center;verticalAlign=middle;resizable=0;points=[];" vertex="1" connectable="0" parent="FO1KpMH2WgOHVXkWXq-a-12">
          <mxGeometry x="-0.44" y="-1" relative="1" as="geometry">
            <mxPoint x="6" y="-1" as="offset" />
          </mxGeometry>
        </mxCell>
        <mxCell id="FO1KpMH2WgOHVXkWXq-a-16" value="" style="edgeStyle=orthogonalEdgeStyle;rounded=0;orthogonalLoop=1;jettySize=auto;html=1;" edge="1" parent="WIyWlLk6GJQsqaUBKTNV-1" source="FO1KpMH2WgOHVXkWXq-a-10" target="FO1KpMH2WgOHVXkWXq-a-15">
          <mxGeometry relative="1" as="geometry" />
        </mxCell>
        <mxCell id="FO1KpMH2WgOHVXkWXq-a-18" value="N" style="edgeLabel;html=1;align=center;verticalAlign=middle;resizable=0;points=[];" vertex="1" connectable="0" parent="FO1KpMH2WgOHVXkWXq-a-16">
          <mxGeometry x="0.36" y="-2" relative="1" as="geometry">
            <mxPoint x="2" y="-22" as="offset" />
          </mxGeometry>
        </mxCell>
        <mxCell id="FO1KpMH2WgOHVXkWXq-a-10" value="比对数据库的值和传进来的值是否有修改？" style="strokeWidth=2;html=1;shape=mxgraph.flowchart.decision;whiteSpace=wrap;" vertex="1" parent="WIyWlLk6GJQsqaUBKTNV-1">
          <mxGeometry x="170" y="390" width="100" height="100" as="geometry" />
        </mxCell>
        <mxCell id="FO1KpMH2WgOHVXkWXq-a-20" value="" style="edgeStyle=orthogonalEdgeStyle;rounded=0;orthogonalLoop=1;jettySize=auto;html=1;" edge="1" parent="WIyWlLk6GJQsqaUBKTNV-1" source="FO1KpMH2WgOHVXkWXq-a-11" target="FO1KpMH2WgOHVXkWXq-a-19">
          <mxGeometry relative="1" as="geometry" />
        </mxCell>
        <mxCell id="FO1KpMH2WgOHVXkWXq-a-23" value="Y" style="edgeLabel;html=1;align=center;verticalAlign=middle;resizable=0;points=[];" vertex="1" connectable="0" parent="FO1KpMH2WgOHVXkWXq-a-20">
          <mxGeometry x="-0.3226" y="-2" relative="1" as="geometry">
            <mxPoint as="offset" />
          </mxGeometry>
        </mxCell>
        <mxCell id="FO1KpMH2WgOHVXkWXq-a-76" style="edgeStyle=orthogonalEdgeStyle;rounded=0;orthogonalLoop=1;jettySize=auto;html=1;" edge="1" parent="WIyWlLk6GJQsqaUBKTNV-1" source="FO1KpMH2WgOHVXkWXq-a-11">
          <mxGeometry relative="1" as="geometry">
            <mxPoint x="670" y="1412" as="targetPoint" />
          </mxGeometry>
        </mxCell>
        <mxCell id="FO1KpMH2WgOHVXkWXq-a-77" value="N" style="edgeLabel;html=1;align=center;verticalAlign=middle;resizable=0;points=[];" vertex="1" connectable="0" parent="FO1KpMH2WgOHVXkWXq-a-76">
          <mxGeometry x="-0.7532" y="-3" relative="1" as="geometry">
            <mxPoint as="offset" />
          </mxGeometry>
        </mxCell>
        <mxCell id="FO1KpMH2WgOHVXkWXq-a-11" value="上domain的写锁是否成功?" style="strokeWidth=2;html=1;shape=mxgraph.flowchart.decision;whiteSpace=wrap;" vertex="1" parent="WIyWlLk6GJQsqaUBKTNV-1">
          <mxGeometry x="310" y="390" width="100" height="100" as="geometry" />
        </mxCell>
        <mxCell id="FO1KpMH2WgOHVXkWXq-a-22" value="" style="edgeStyle=orthogonalEdgeStyle;rounded=0;orthogonalLoop=1;jettySize=auto;html=1;" edge="1" parent="WIyWlLk6GJQsqaUBKTNV-1" source="FO1KpMH2WgOHVXkWXq-a-15" target="FO1KpMH2WgOHVXkWXq-a-21">
          <mxGeometry relative="1" as="geometry" />
        </mxCell>
        <mxCell id="FO1KpMH2WgOHVXkWXq-a-24" value="Y" style="edgeLabel;html=1;align=center;verticalAlign=middle;resizable=0;points=[];" vertex="1" connectable="0" parent="FO1KpMH2WgOHVXkWXq-a-22">
          <mxGeometry x="-0.2632" y="-1" relative="1" as="geometry">
            <mxPoint as="offset" />
          </mxGeometry>
        </mxCell>
        <mxCell id="FO1KpMH2WgOHVXkWXq-a-71" style="edgeStyle=orthogonalEdgeStyle;rounded=0;orthogonalLoop=1;jettySize=auto;html=1;entryX=0.5;entryY=0;entryDx=0;entryDy=0;" edge="1" parent="WIyWlLk6GJQsqaUBKTNV-1" source="FO1KpMH2WgOHVXkWXq-a-15" target="FO1KpMH2WgOHVXkWXq-a-63">
          <mxGeometry relative="1" as="geometry" />
        </mxCell>
        <mxCell id="FO1KpMH2WgOHVXkWXq-a-15" value="上domain的读锁是否成功？" style="rhombus;whiteSpace=wrap;html=1;strokeWidth=2;" vertex="1" parent="WIyWlLk6GJQsqaUBKTNV-1">
          <mxGeometry x="175" y="537" width="90" height="90" as="geometry" />
        </mxCell>
        <mxCell id="FO1KpMH2WgOHVXkWXq-a-72" style="edgeStyle=orthogonalEdgeStyle;rounded=0;orthogonalLoop=1;jettySize=auto;html=1;entryX=1;entryY=0.5;entryDx=0;entryDy=0;exitX=0.5;exitY=1;exitDx=0;exitDy=0;" edge="1" parent="WIyWlLk6GJQsqaUBKTNV-1" source="FO1KpMH2WgOHVXkWXq-a-19" target="FO1KpMH2WgOHVXkWXq-a-21">
          <mxGeometry relative="1" as="geometry" />
        </mxCell>
        <mxCell id="FO1KpMH2WgOHVXkWXq-a-19" value="将该domain新增/变更的内容记录到变更项明细中" style="whiteSpace=wrap;html=1;strokeWidth=2;" vertex="1" parent="WIyWlLk6GJQsqaUBKTNV-1">
          <mxGeometry x="300" y="552" width="120" height="60" as="geometry" />
        </mxCell>
        <mxCell id="FO1KpMH2WgOHVXkWXq-a-26" value="" style="edgeStyle=orthogonalEdgeStyle;rounded=0;orthogonalLoop=1;jettySize=auto;html=1;" edge="1" parent="WIyWlLk6GJQsqaUBKTNV-1" source="FO1KpMH2WgOHVXkWXq-a-21" target="FO1KpMH2WgOHVXkWXq-a-25">
          <mxGeometry relative="1" as="geometry" />
        </mxCell>
        <mxCell id="FO1KpMH2WgOHVXkWXq-a-21" value="从请求参数提取datasource的信息" style="whiteSpace=wrap;html=1;strokeWidth=2;" vertex="1" parent="WIyWlLk6GJQsqaUBKTNV-1">
          <mxGeometry x="161" y="680" width="120" height="60" as="geometry" />
        </mxCell>
        <mxCell id="FO1KpMH2WgOHVXkWXq-a-28" value="" style="edgeStyle=orthogonalEdgeStyle;rounded=0;orthogonalLoop=1;jettySize=auto;html=1;" edge="1" parent="WIyWlLk6GJQsqaUBKTNV-1" source="FO1KpMH2WgOHVXkWXq-a-25" target="FO1KpMH2WgOHVXkWXq-a-27">
          <mxGeometry relative="1" as="geometry" />
        </mxCell>
        <mxCell id="FO1KpMH2WgOHVXkWXq-a-29" value="Y" style="edgeLabel;html=1;align=center;verticalAlign=middle;resizable=0;points=[];" vertex="1" connectable="0" parent="FO1KpMH2WgOHVXkWXq-a-28">
          <mxGeometry x="-0.2333" y="-3" relative="1" as="geometry">
            <mxPoint as="offset" />
          </mxGeometry>
        </mxCell>
        <mxCell id="FO1KpMH2WgOHVXkWXq-a-31" value="" style="edgeStyle=orthogonalEdgeStyle;rounded=0;orthogonalLoop=1;jettySize=auto;html=1;" edge="1" parent="WIyWlLk6GJQsqaUBKTNV-1" source="FO1KpMH2WgOHVXkWXq-a-25" target="FO1KpMH2WgOHVXkWXq-a-30">
          <mxGeometry relative="1" as="geometry" />
        </mxCell>
        <mxCell id="FO1KpMH2WgOHVXkWXq-a-32" value="N" style="edgeLabel;html=1;align=center;verticalAlign=middle;resizable=0;points=[];" vertex="1" connectable="0" parent="FO1KpMH2WgOHVXkWXq-a-31">
          <mxGeometry x="-0.4" relative="1" as="geometry">
            <mxPoint as="offset" />
          </mxGeometry>
        </mxCell>
        <mxCell id="FO1KpMH2WgOHVXkWXq-a-25" value="判断是否存在datasourceCode?" style="rhombus;whiteSpace=wrap;html=1;strokeWidth=2;" vertex="1" parent="WIyWlLk6GJQsqaUBKTNV-1">
          <mxGeometry x="181" y="780" width="80" height="80" as="geometry" />
        </mxCell>
        <mxCell id="FO1KpMH2WgOHVXkWXq-a-38" value="" style="edgeStyle=orthogonalEdgeStyle;rounded=0;orthogonalLoop=1;jettySize=auto;html=1;" edge="1" parent="WIyWlLk6GJQsqaUBKTNV-1" source="FO1KpMH2WgOHVXkWXq-a-27" target="FO1KpMH2WgOHVXkWXq-a-37">
          <mxGeometry relative="1" as="geometry" />
        </mxCell>
        <mxCell id="FO1KpMH2WgOHVXkWXq-a-27" value="根据datasourceCode获取数据库的datasource，比对请求参数和数据库中的datasource" style="whiteSpace=wrap;html=1;strokeWidth=2;" vertex="1" parent="WIyWlLk6GJQsqaUBKTNV-1">
          <mxGeometry x="321" y="780" width="139" height="80" as="geometry" />
        </mxCell>
        <mxCell id="FO1KpMH2WgOHVXkWXq-a-34" value="" style="edgeStyle=orthogonalEdgeStyle;rounded=0;orthogonalLoop=1;jettySize=auto;html=1;" edge="1" parent="WIyWlLk6GJQsqaUBKTNV-1" source="FO1KpMH2WgOHVXkWXq-a-30" target="FO1KpMH2WgOHVXkWXq-a-33">
          <mxGeometry relative="1" as="geometry" />
        </mxCell>
        <mxCell id="FO1KpMH2WgOHVXkWXq-a-30" value="不存在则进入新增数据源的操作" style="whiteSpace=wrap;html=1;strokeWidth=2;" vertex="1" parent="WIyWlLk6GJQsqaUBKTNV-1">
          <mxGeometry x="161" y="920" width="120" height="60" as="geometry" />
        </mxCell>
        <mxCell id="FO1KpMH2WgOHVXkWXq-a-36" value="" style="edgeStyle=orthogonalEdgeStyle;rounded=0;orthogonalLoop=1;jettySize=auto;html=1;" edge="1" parent="WIyWlLk6GJQsqaUBKTNV-1" source="FO1KpMH2WgOHVXkWXq-a-33" target="FO1KpMH2WgOHVXkWXq-a-35">
          <mxGeometry relative="1" as="geometry" />
        </mxCell>
        <mxCell id="FO1KpMH2WgOHVXkWXq-a-50" value="Y" style="edgeLabel;html=1;align=center;verticalAlign=middle;resizable=0;points=[];" vertex="1" connectable="0" parent="FO1KpMH2WgOHVXkWXq-a-36">
          <mxGeometry x="0.12" y="-3" relative="1" as="geometry">
            <mxPoint as="offset" />
          </mxGeometry>
        </mxCell>
        <mxCell id="FO1KpMH2WgOHVXkWXq-a-68" value="N" style="edgeStyle=orthogonalEdgeStyle;rounded=0;orthogonalLoop=1;jettySize=auto;html=1;" edge="1" parent="WIyWlLk6GJQsqaUBKTNV-1" source="FO1KpMH2WgOHVXkWXq-a-33" target="FO1KpMH2WgOHVXkWXq-a-63">
          <mxGeometry relative="1" as="geometry" />
        </mxCell>
        <mxCell id="FO1KpMH2WgOHVXkWXq-a-33" value="上该datasource写锁是否成功？" style="rhombus;whiteSpace=wrap;html=1;strokeWidth=2;" vertex="1" parent="WIyWlLk6GJQsqaUBKTNV-1">
          <mxGeometry x="180" y="1010" width="80" height="80" as="geometry" />
        </mxCell>
        <mxCell id="FO1KpMH2WgOHVXkWXq-a-47" value="" style="edgeStyle=orthogonalEdgeStyle;rounded=0;orthogonalLoop=1;jettySize=auto;html=1;" edge="1" parent="WIyWlLk6GJQsqaUBKTNV-1" source="FO1KpMH2WgOHVXkWXq-a-35" target="FO1KpMH2WgOHVXkWXq-a-46">
          <mxGeometry relative="1" as="geometry" />
        </mxCell>
        <mxCell id="FO1KpMH2WgOHVXkWXq-a-35" value="将datasource中新增/变更的内容插入到变更项明细中" style="whiteSpace=wrap;html=1;strokeWidth=2;" vertex="1" parent="WIyWlLk6GJQsqaUBKTNV-1">
          <mxGeometry x="160" y="1140" width="120" height="60" as="geometry" />
        </mxCell>
        <mxCell id="FO1KpMH2WgOHVXkWXq-a-40" style="edgeStyle=orthogonalEdgeStyle;rounded=0;orthogonalLoop=1;jettySize=auto;html=1;entryX=1;entryY=0.5;entryDx=0;entryDy=0;exitX=0.5;exitY=1;exitDx=0;exitDy=0;" edge="1" parent="WIyWlLk6GJQsqaUBKTNV-1" source="FO1KpMH2WgOHVXkWXq-a-37" target="FO1KpMH2WgOHVXkWXq-a-33">
          <mxGeometry relative="1" as="geometry" />
        </mxCell>
        <mxCell id="FO1KpMH2WgOHVXkWXq-a-41" value="Y" style="edgeLabel;html=1;align=center;verticalAlign=middle;resizable=0;points=[];" vertex="1" connectable="0" parent="FO1KpMH2WgOHVXkWXq-a-40">
          <mxGeometry x="0.1579" y="1" relative="1" as="geometry">
            <mxPoint x="1" as="offset" />
          </mxGeometry>
        </mxCell>
        <mxCell id="FO1KpMH2WgOHVXkWXq-a-43" value="" style="edgeStyle=orthogonalEdgeStyle;rounded=0;orthogonalLoop=1;jettySize=auto;html=1;" edge="1" parent="WIyWlLk6GJQsqaUBKTNV-1" source="FO1KpMH2WgOHVXkWXq-a-37">
          <mxGeometry relative="1" as="geometry">
            <mxPoint x="510" y="945" as="targetPoint" />
          </mxGeometry>
        </mxCell>
        <mxCell id="FO1KpMH2WgOHVXkWXq-a-44" value="N" style="edgeLabel;html=1;align=center;verticalAlign=middle;resizable=0;points=[];" vertex="1" connectable="0" parent="FO1KpMH2WgOHVXkWXq-a-43">
          <mxGeometry x="-0.0533" y="1" relative="1" as="geometry">
            <mxPoint as="offset" />
          </mxGeometry>
        </mxCell>
        <mxCell id="FO1KpMH2WgOHVXkWXq-a-37" value="如果数据库的信息和请求过来的信息是否出现不同的地方" style="rhombus;whiteSpace=wrap;html=1;strokeWidth=2;" vertex="1" parent="WIyWlLk6GJQsqaUBKTNV-1">
          <mxGeometry x="330.75" y="890" width="119.5" height="110" as="geometry" />
        </mxCell>
        <mxCell id="FO1KpMH2WgOHVXkWXq-a-48" style="edgeStyle=orthogonalEdgeStyle;rounded=0;orthogonalLoop=1;jettySize=auto;html=1;entryX=1;entryY=0.5;entryDx=0;entryDy=0;exitX=0.5;exitY=1;exitDx=0;exitDy=0;" edge="1" parent="WIyWlLk6GJQsqaUBKTNV-1" source="FO1KpMH2WgOHVXkWXq-a-45" target="FO1KpMH2WgOHVXkWXq-a-46">
          <mxGeometry relative="1" as="geometry" />
        </mxCell>
        <mxCell id="FO1KpMH2WgOHVXkWXq-a-49" value="Y" style="edgeLabel;html=1;align=center;verticalAlign=middle;resizable=0;points=[];" vertex="1" connectable="0" parent="FO1KpMH2WgOHVXkWXq-a-48">
          <mxGeometry x="-0.517" y="1" relative="1" as="geometry">
            <mxPoint as="offset" />
          </mxGeometry>
        </mxCell>
        <mxCell id="FO1KpMH2WgOHVXkWXq-a-74" style="edgeStyle=orthogonalEdgeStyle;rounded=0;orthogonalLoop=1;jettySize=auto;html=1;entryX=0.5;entryY=0;entryDx=0;entryDy=0;exitX=1;exitY=0.5;exitDx=0;exitDy=0;" edge="1" parent="WIyWlLk6GJQsqaUBKTNV-1" source="FO1KpMH2WgOHVXkWXq-a-45" target="FO1KpMH2WgOHVXkWXq-a-73">
          <mxGeometry relative="1" as="geometry" />
        </mxCell>
        <mxCell id="FO1KpMH2WgOHVXkWXq-a-75" value="N" style="edgeLabel;html=1;align=center;verticalAlign=middle;resizable=0;points=[];" vertex="1" connectable="0" parent="FO1KpMH2WgOHVXkWXq-a-74">
          <mxGeometry x="-0.8252" relative="1" as="geometry">
            <mxPoint as="offset" />
          </mxGeometry>
        </mxCell>
        <mxCell id="FO1KpMH2WgOHVXkWXq-a-45" value="上该datasource读锁是否成功？" style="rhombus;whiteSpace=wrap;html=1;strokeWidth=2;" vertex="1" parent="WIyWlLk6GJQsqaUBKTNV-1">
          <mxGeometry x="510" y="897.5" width="110" height="95" as="geometry" />
        </mxCell>
        <mxCell id="FO1KpMH2WgOHVXkWXq-a-52" value="" style="edgeStyle=orthogonalEdgeStyle;rounded=0;orthogonalLoop=1;jettySize=auto;html=1;" edge="1" parent="WIyWlLk6GJQsqaUBKTNV-1" source="FO1KpMH2WgOHVXkWXq-a-46" target="FO1KpMH2WgOHVXkWXq-a-51">
          <mxGeometry relative="1" as="geometry" />
        </mxCell>
        <mxCell id="FO1KpMH2WgOHVXkWXq-a-46" value="从请求参数提取tunnel信息" style="whiteSpace=wrap;html=1;strokeWidth=2;" vertex="1" parent="WIyWlLk6GJQsqaUBKTNV-1">
          <mxGeometry x="160" y="1280" width="120" height="60" as="geometry" />
        </mxCell>
        <mxCell id="FO1KpMH2WgOHVXkWXq-a-54" value="" style="edgeStyle=orthogonalEdgeStyle;rounded=0;orthogonalLoop=1;jettySize=auto;html=1;" edge="1" parent="WIyWlLk6GJQsqaUBKTNV-1" source="FO1KpMH2WgOHVXkWXq-a-51" target="FO1KpMH2WgOHVXkWXq-a-53">
          <mxGeometry relative="1" as="geometry" />
        </mxCell>
        <mxCell id="FO1KpMH2WgOHVXkWXq-a-55" value="Y" style="edgeLabel;html=1;align=center;verticalAlign=middle;resizable=0;points=[];" vertex="1" connectable="0" parent="FO1KpMH2WgOHVXkWXq-a-54">
          <mxGeometry x="-0.32" y="-3" relative="1" as="geometry">
            <mxPoint as="offset" />
          </mxGeometry>
        </mxCell>
        <mxCell id="FO1KpMH2WgOHVXkWXq-a-64" value="" style="edgeStyle=orthogonalEdgeStyle;rounded=0;orthogonalLoop=1;jettySize=auto;html=1;" edge="1" parent="WIyWlLk6GJQsqaUBKTNV-1" source="FO1KpMH2WgOHVXkWXq-a-51" target="FO1KpMH2WgOHVXkWXq-a-63">
          <mxGeometry relative="1" as="geometry" />
        </mxCell>
        <mxCell id="FO1KpMH2WgOHVXkWXq-a-69" value="N" style="edgeLabel;html=1;align=center;verticalAlign=middle;resizable=0;points=[];" vertex="1" connectable="0" parent="FO1KpMH2WgOHVXkWXq-a-64">
          <mxGeometry x="0.1" y="3" relative="1" as="geometry">
            <mxPoint as="offset" />
          </mxGeometry>
        </mxCell>
        <mxCell id="FO1KpMH2WgOHVXkWXq-a-51" value="上该tunnel的写锁是否成功？" style="rhombus;whiteSpace=wrap;html=1;strokeWidth=2;" vertex="1" parent="WIyWlLk6GJQsqaUBKTNV-1">
          <mxGeometry x="180" y="1410" width="80" height="80" as="geometry" />
        </mxCell>
        <mxCell id="FO1KpMH2WgOHVXkWXq-a-61" value="" style="edgeStyle=orthogonalEdgeStyle;rounded=0;orthogonalLoop=1;jettySize=auto;html=1;" edge="1" parent="WIyWlLk6GJQsqaUBKTNV-1" source="FO1KpMH2WgOHVXkWXq-a-53" target="FO1KpMH2WgOHVXkWXq-a-60">
          <mxGeometry relative="1" as="geometry" />
        </mxCell>
        <mxCell id="FO1KpMH2WgOHVXkWXq-a-53" value="将新增的tunnel插入到变更项明细表中" style="whiteSpace=wrap;html=1;strokeWidth=2;" vertex="1" parent="WIyWlLk6GJQsqaUBKTNV-1">
          <mxGeometry x="160" y="1540" width="120" height="60" as="geometry" />
        </mxCell>
        <mxCell id="FO1KpMH2WgOHVXkWXq-a-56" value="结束" style="rounded=1;whiteSpace=wrap;html=1;" vertex="1" parent="WIyWlLk6GJQsqaUBKTNV-1">
          <mxGeometry x="162" y="1734" width="119" height="40" as="geometry" />
        </mxCell>
        <mxCell id="FO1KpMH2WgOHVXkWXq-a-62" value="" style="edgeStyle=orthogonalEdgeStyle;rounded=0;orthogonalLoop=1;jettySize=auto;html=1;" edge="1" parent="WIyWlLk6GJQsqaUBKTNV-1" source="FO1KpMH2WgOHVXkWXq-a-60" target="FO1KpMH2WgOHVXkWXq-a-56">
          <mxGeometry relative="1" as="geometry" />
        </mxCell>
        <mxCell id="FO1KpMH2WgOHVXkWXq-a-60" value="提交分布式事务" style="whiteSpace=wrap;html=1;strokeWidth=2;" vertex="1" parent="WIyWlLk6GJQsqaUBKTNV-1">
          <mxGeometry x="161" y="1630" width="120" height="60" as="geometry" />
        </mxCell>
        <mxCell id="FO1KpMH2WgOHVXkWXq-a-66" value="" style="edgeStyle=orthogonalEdgeStyle;rounded=0;orthogonalLoop=1;jettySize=auto;html=1;" edge="1" parent="WIyWlLk6GJQsqaUBKTNV-1" source="FO1KpMH2WgOHVXkWXq-a-63" target="FO1KpMH2WgOHVXkWXq-a-65">
          <mxGeometry relative="1" as="geometry" />
        </mxCell>
        <mxCell id="FO1KpMH2WgOHVXkWXq-a-63" value="抛出异常" style="whiteSpace=wrap;html=1;strokeWidth=2;" vertex="1" parent="WIyWlLk6GJQsqaUBKTNV-1">
          <mxGeometry y="1420" width="120" height="60" as="geometry" />
        </mxCell>
        <mxCell id="FO1KpMH2WgOHVXkWXq-a-67" style="edgeStyle=orthogonalEdgeStyle;rounded=0;orthogonalLoop=1;jettySize=auto;html=1;entryX=0;entryY=0.5;entryDx=0;entryDy=0;exitX=0.5;exitY=1;exitDx=0;exitDy=0;" edge="1" parent="WIyWlLk6GJQsqaUBKTNV-1" source="FO1KpMH2WgOHVXkWXq-a-65" target="FO1KpMH2WgOHVXkWXq-a-56">
          <mxGeometry relative="1" as="geometry" />
        </mxCell>
        <mxCell id="FO1KpMH2WgOHVXkWXq-a-65" value="回滚事务" style="whiteSpace=wrap;html=1;strokeWidth=2;" vertex="1" parent="WIyWlLk6GJQsqaUBKTNV-1">
          <mxGeometry y="1560" width="120" height="60" as="geometry" />
        </mxCell>
        <mxCell id="FO1KpMH2WgOHVXkWXq-a-79" style="edgeStyle=orthogonalEdgeStyle;rounded=0;orthogonalLoop=1;jettySize=auto;html=1;exitX=0.5;exitY=1;exitDx=0;exitDy=0;" edge="1" parent="WIyWlLk6GJQsqaUBKTNV-1" source="FO1KpMH2WgOHVXkWXq-a-73" target="FO1KpMH2WgOHVXkWXq-a-78">
          <mxGeometry relative="1" as="geometry" />
        </mxCell>
        <mxCell id="FO1KpMH2WgOHVXkWXq-a-73" value="抛出异常" style="whiteSpace=wrap;html=1;strokeWidth=2;" vertex="1" parent="WIyWlLk6GJQsqaUBKTNV-1">
          <mxGeometry x="610" y="1410" width="120" height="60" as="geometry" />
        </mxCell>
        <mxCell id="FO1KpMH2WgOHVXkWXq-a-80" style="edgeStyle=orthogonalEdgeStyle;rounded=0;orthogonalLoop=1;jettySize=auto;html=1;entryX=1;entryY=0.5;entryDx=0;entryDy=0;exitX=0.5;exitY=1;exitDx=0;exitDy=0;" edge="1" parent="WIyWlLk6GJQsqaUBKTNV-1" source="FO1KpMH2WgOHVXkWXq-a-78" target="FO1KpMH2WgOHVXkWXq-a-56">
          <mxGeometry relative="1" as="geometry" />
        </mxCell>
        <mxCell id="FO1KpMH2WgOHVXkWXq-a-78" value="抛出异常" style="whiteSpace=wrap;html=1;strokeWidth=2;" vertex="1" parent="WIyWlLk6GJQsqaUBKTNV-1">
          <mxGeometry x="610" y="1560" width="120" height="60" as="geometry" />
        </mxCell>
      </root>
    </mxGraphModel>
  </diagram>
</mxfile>
